<svg width="40" height="40" viewBox="0 0 40 40" fill="none" xmlns="http://www.w3.org/2000/svg">
<path d="M18.65 29C18.65 29.5523 19.0977 30 19.65 30H20.65C21.2023 30 21.65 29.5523 21.65 29V22.7C21.65 22.1477 22.0977 21.7 22.65 21.7H29C29.5523 21.7 30 21.2523 30 20.7V19.7C30 19.1477 29.5523 18.7 29 18.7H22.65C22.0977 18.7 21.65 18.2523 21.65 17.7V11C21.65 10.4477 21.2023 10 20.65 10H19.65C19.0977 10 18.65 10.4477 18.65 11V17.7C18.65 18.2523 18.2023 18.7 17.65 18.7H11C10.4477 18.7 10 19.1477 10 19.7V20.7C10 21.2523 10.4477 21.7 11 21.7H17.65C18.2023 21.7 18.65 22.1477 18.65 22.7V29ZM20 40C17.2667 40 14.6833 39.475 12.25 38.425C9.81667 37.375 7.69167 35.9417 5.875 34.125C4.05833 32.3083 2.625 30.1833 1.575 27.75C0.525 25.3167 0 22.7167 0 19.95C0 17.2167 0.525 14.6333 1.575 12.2C2.625 9.76667 4.05833 7.65 5.875 5.85C7.69167 4.05 9.81667 2.625 12.25 1.575C14.6833 0.525 17.2833 0 20.05 0C22.7833 0 25.3667 0.525 27.8 1.575C30.2333 2.625 32.35 4.05 34.15 5.85C35.95 7.65 37.375 9.76667 38.425 12.2C39.475 14.6333 40 17.2333 40 20C40 22.7333 39.475 25.3167 38.425 27.75C37.375 30.1833 35.95 32.3083 34.15 34.125C32.35 35.9417 30.2333 37.375 27.8 38.425C25.3667 39.475 22.7667 40 20 40Z" fill="#0085FF"/>
</svg>
