<svg width="45" height="45" viewBox="0 0 45 45" fill="none" xmlns="http://www.w3.org/2000/svg">
<path d="M17.767 31.3147C18.5474 32.0998 19.817 32.1017 20.5997 31.319L33.8062 18.1126C34.5184 17.4003 34.5121 16.2436 33.792 15.5392V15.5392C33.0831 14.8457 31.9481 14.8519 31.2468 15.5532L20.5955 26.2045C19.8144 26.9856 18.5481 26.9856 17.767 26.2045L13.6988 22.1363C12.9987 21.4362 11.8638 21.4362 11.1637 22.1363V22.1363C10.4652 22.8348 10.4635 23.9669 11.1599 24.6675L17.767 31.3147ZM22.5 45C19.425 45 16.5188 44.4094 13.7812 43.2281C11.0437 42.0469 8.65313 40.4344 6.60938 38.3906C4.56562 36.3469 2.95312 33.9563 1.77187 31.2188C0.590625 28.4812 0 25.575 0 22.5C0 19.3875 0.590625 16.4625 1.77187 13.725C2.95312 10.9875 4.56562 8.60625 6.60938 6.58125C8.65313 4.55625 11.0437 2.95312 13.7812 1.77187C16.5188 0.590625 19.425 0 22.5 0C25.6125 0 28.5375 0.590625 31.275 1.77187C34.0125 2.95312 36.3938 4.55625 38.4188 6.58125C40.4438 8.60625 42.0469 10.9875 43.2281 13.725C44.4094 16.4625 45 19.3875 45 22.5C45 25.575 44.4094 28.4812 43.2281 31.2188C42.0469 33.9563 40.4438 36.3469 38.4188 38.3906C36.3938 40.4344 34.0125 42.0469 31.275 43.2281C28.5375 44.4094 25.6125 45 22.5 45Z" fill="#39BA2E"/>
</svg>
