<svg width="37" height="45" viewBox="0 0 37 45" fill="none" xmlns="http://www.w3.org/2000/svg">
<path d="M33.0446 5.625H25.3108V4.21875C25.3108 1.88877 23.4221 0 21.0923 0H15.4677C13.1379 0 11.2492 1.88877 11.2492 4.21875V5.625H3.51538C1.57393 5.625 0 7.19903 0 9.14062V11.9531C0 12.7298 0.629518 13.3594 1.40615 13.3594H35.1538C35.9305 13.3594 36.56 12.7298 36.56 11.9531V9.14062C36.56 7.19903 34.9861 5.625 33.0446 5.625ZM14.0615 4.21875C14.0615 3.44355 14.6926 2.8125 15.4677 2.8125H21.0923C21.8674 2.8125 22.4985 3.44355 22.4985 4.21875V5.625H14.0615V4.21875ZM2.66853 16.1719C2.41762 16.1719 2.21768 16.3816 2.22963 16.6322L3.38971 40.9816C3.49693 43.2352 5.34778 45 7.6029 45H28.9571C31.2122 45 33.0631 43.2352 33.1703 40.9816L34.3304 16.6322C34.3423 16.3816 34.1424 16.1719 33.8915 16.1719H2.66853ZM23.9046 19.6875C23.9046 18.9105 24.5339 18.2812 25.3108 18.2812C26.0877 18.2812 26.7169 18.9105 26.7169 19.6875V37.9688C26.7169 38.7457 26.0877 39.375 25.3108 39.375C24.5339 39.375 23.9046 38.7457 23.9046 37.9688V19.6875ZM16.8738 19.6875C16.8738 18.9105 17.5031 18.2812 18.28 18.2812C19.0569 18.2812 19.6862 18.9105 19.6862 19.6875V37.9688C19.6862 38.7457 19.0569 39.375 18.28 39.375C17.5031 39.375 16.8738 38.7457 16.8738 37.9688V19.6875ZM9.84308 19.6875C9.84308 18.9105 10.4723 18.2812 11.2492 18.2812C12.0261 18.2812 12.6554 18.9105 12.6554 19.6875V37.9688C12.6554 38.7457 12.0261 39.375 11.2492 39.375C10.4723 39.375 9.84308 38.7457 9.84308 37.9688V19.6875Z" fill="#FF0000"/>
</svg>
