<svg width="37" height="45" viewBox="0 0 37 45" fill="none" xmlns="http://www.w3.org/2000/svg">
<path d="M33.0469 5.625H25.3125V4.21875C25.3125 1.89255 23.42 0 21.0938 0H15.4688C13.1425 0 11.25 1.89255 11.25 4.21875V5.625H3.51562C1.57711 5.625 0 7.20211 0 9.14062V14.0625C0 14.8391 0.629648 15.4688 1.40625 15.4688H2.17477L3.38968 40.9819C3.49699 43.2351 5.34797 45 7.60359 45H28.9589C31.2146 45 33.0656 43.2351 33.1728 40.9819L34.3877 15.4688H35.1562C35.9329 15.4688 36.5625 14.8391 36.5625 14.0625V9.14062C36.5625 7.20211 34.9854 5.625 33.0469 5.625ZM14.0625 4.21875C14.0625 3.44338 14.6934 2.8125 15.4688 2.8125H21.0938C21.8691 2.8125 22.5 3.44338 22.5 4.21875V5.625H14.0625V4.21875ZM2.8125 9.14062C2.8125 8.75294 3.12794 8.4375 3.51562 8.4375H33.0469C33.4346 8.4375 33.75 8.75294 33.75 9.14062V12.6562H2.8125V9.14062ZM30.3635 40.8481C30.3277 41.5992 29.7107 42.1875 28.9589 42.1875H7.60359C6.85169 42.1875 6.2347 41.5992 6.19901 40.8481L4.99043 15.4688H31.5721L30.3635 40.8481Z" fill="#D7D7D7"/>
<path d="M18.4375 39.0938C19.2141 39.0938 19.8438 38.4641 19.8438 37.6875V19.4062C19.8438 18.6296 19.2141 18 18.4375 18C17.6609 18 17.0312 18.6296 17.0312 19.4062V37.6875C17.0312 38.4641 17.6608 39.0938 18.4375 39.0938ZM25.4688 39.0938C26.2454 39.0938 26.875 38.4641 26.875 37.6875V19.4062C26.875 18.6296 26.2454 18 25.4688 18C24.6921 18 24.0625 18.6296 24.0625 19.4062V37.6875C24.0625 38.4641 24.6921 39.0938 25.4688 39.0938ZM11.4062 39.0938C12.1829 39.0938 12.8125 38.4641 12.8125 37.6875V19.4062C12.8125 18.6296 12.1829 18 11.4062 18C10.6296 18 10 18.6296 10 19.4062V37.6875C10 38.4641 10.6296 39.0938 11.4062 39.0938Z" fill="#D7D7D7"/>
</svg>
