<svg width="45" height="45" viewBox="0 0 45 45" fill="none" xmlns="http://www.w3.org/2000/svg">
<path d="M37.561 1.32188C36.7312 0.492153 35.4094 0.492153 34.5797 1.32188L18.5625 17.339C18.3094 17.5781 18.1407 17.8875 18.0281 18.225L15.4125 26.9578C15.1875 27.7031 15.3984 28.5046 15.9469 29.0531C16.3406 29.461 16.8891 29.6718 17.4375 29.6718C17.6343 29.6718 17.8453 29.6437 18.0422 29.5875L26.775 26.9719C27.1125 26.8593 27.4219 26.6906 27.6609 26.4375L43.6781 10.4203C44.0719 10.0266 44.2969 9.49219 44.2969 8.92967C44.2969 8.36722 44.0719 7.83283 43.6781 7.43904L37.561 1.32188Z" fill="#0029FF"/>
<path d="M42.1875 20.3906C41.0223 20.3906 40.0781 21.3355 40.0781 22.5V36.5625C40.0781 38.5016 38.5009 40.0781 36.5625 40.0781H8.4375C6.4991 40.0781 4.92188 38.5016 4.92188 36.5625V8.4375C4.92188 6.49841 6.4991 4.92188 8.4375 4.92188H22.5C23.6652 4.92188 24.6094 3.97704 24.6094 2.8125C24.6094 1.64796 23.6652 0.703125 22.5 0.703125H8.4375C4.17275 0.703125 0.703125 4.17343 0.703125 8.4375V36.5625C0.703125 40.8266 4.17275 44.2969 8.4375 44.2969H36.5625C40.8272 44.2969 44.2969 40.8266 44.2969 36.5625V22.5C44.2969 21.3355 43.3527 20.3906 42.1875 20.3906Z" fill="#0029FF"/>
</svg>
