<svg width="45" height="45" viewBox="0 0 45 45" fill="none" xmlns="http://www.w3.org/2000/svg">
<path d="M18.0334 18.2236L15.4138 26.9591C15.1913 27.702 15.3946 28.5081 15.9432 29.0561C16.3442 29.4571 16.8832 29.6741 17.4346 29.6741C17.6372 29.6741 17.8411 29.6452 18.0402 29.5848L26.7764 26.9659C27.1108 26.8657 27.4157 26.6844 27.6622 26.4372L43.6789 10.4205C44.0744 10.025 44.2969 9.48807 44.2969 8.92915C44.2969 8.37022 44.0744 7.83326 43.6789 7.43775L37.5616 1.32111C36.7376 0.49713 35.4027 0.49713 34.5788 1.32111L18.5628 17.3378C18.3156 17.585 18.1343 17.8885 18.0334 18.2236ZM21.9218 19.9443L36.0702 5.79529L39.204 8.92915L25.0557 23.0782L20.5801 24.4199L21.9218 19.9443Z" fill="#D7D7D7"/>
<path d="M42.1875 20.3906C41.0223 20.3906 40.0781 21.3355 40.0781 22.5V36.5625C40.0781 38.5016 38.5009 40.0781 36.5625 40.0781H8.4375C6.4991 40.0781 4.92188 38.5016 4.92188 36.5625V8.4375C4.92188 6.49841 6.4991 4.92188 8.4375 4.92188H22.5C23.6652 4.92188 24.6094 3.97704 24.6094 2.8125C24.6094 1.64796 23.6652 0.703125 22.5 0.703125H8.4375C4.17275 0.703125 0.703125 4.17343 0.703125 8.4375V36.5625C0.703125 40.8266 4.17275 44.2969 8.4375 44.2969H36.5625C40.8272 44.2969 44.2969 40.8266 44.2969 36.5625V22.5C44.2969 21.3355 43.3527 20.3906 42.1875 20.3906Z" fill="#D7D7D7"/>
</svg>
