<svg width="45" height="45" viewBox="0 0 45 45" fill="none" xmlns="http://www.w3.org/2000/svg">
<path d="M43.2135 13.7696C42.0223 10.9959 40.4206 8.60322 38.4092 6.59175C36.3973 4.58016 34.0048 2.97874 31.231 1.78706C28.4575 0.595378 25.5478 0 22.5008 0C19.6298 0 16.8516 0.541505 14.1657 1.62575C11.4804 2.70978 9.09266 4.23804 7.00271 6.21094L3.19367 2.43108C2.60764 1.82554 1.93408 1.68896 1.17206 2.02071C0.390653 2.35319 0 2.92958 0 3.74979V16.8751C0 17.3828 0.185629 17.8224 0.556786 18.1934C0.928147 18.5646 1.36764 18.7502 1.87538 18.7502H15.0005C15.821 18.7502 16.3971 18.3595 16.7291 17.5782C17.061 16.8165 16.9244 16.1428 16.3188 15.5566L12.305 11.5137C13.6726 10.2246 15.235 9.23339 16.9927 8.53991C18.7506 7.84653 20.5864 7.49959 22.5006 7.49959C24.5316 7.49959 26.4704 7.89548 28.3161 8.68614C30.1622 9.47731 31.7582 10.5467 33.1061 11.8944C34.4538 13.2419 35.5232 14.8385 36.3143 16.6844C37.1047 18.5302 37.5005 20.4684 37.5005 22.5001C37.5005 24.5317 37.1048 26.4699 36.3143 28.3156C35.5232 30.1613 34.4538 31.7577 33.1061 33.1056C31.7582 34.4533 30.1615 35.523 28.3161 36.3139C26.4704 37.1047 24.5316 37.5002 22.5006 37.5002C20.1762 37.5002 17.979 36.9924 15.9085 35.9771C13.8384 34.9618 12.0903 33.5263 10.6645 31.67C10.5279 31.4748 10.3032 31.3574 9.99064 31.3181C9.69757 31.3181 9.45335 31.4058 9.25808 31.5814L5.24442 35.6247C5.08834 35.7817 5.00532 35.9816 4.99547 36.2253C4.98583 36.47 5.04955 36.6895 5.18613 36.8848C7.31528 39.463 9.89316 41.4602 12.9205 42.8757C15.9478 44.2916 19.1415 45 22.5008 45C25.5478 45 28.4575 44.404 31.231 43.2128C34.0048 42.0218 36.3966 40.4196 38.4088 38.4083C40.4205 36.3961 42.0219 34.0039 43.2134 31.2304C44.4048 28.4569 45 25.5463 45 22.4998C45.0001 19.4523 44.4045 16.5432 43.2135 13.7696Z" fill="#0074B6"/>
</svg>
